<svg width="512" height="512" viewBox="0 0 512 512" fill="none" xmlns="http://www.w3.org/2000/svg">
<path fill-rule="evenodd" clip-rule="evenodd" d="M512 0V71.9909V439.991V512H440H72H0V440V72V0H72H440H512ZM37.2364 450.036V474.764H61.9545L190.736 399.827L161.827 350.155L112.145 321.245L37.2364 450.036ZM136 474.764H234.336L209.464 432.009L136 474.764ZM350.164 350.145L321.255 399.827L450.045 474.764H474.764V450.045L399.827 321.255L350.164 350.145ZM277.664 474.764H376L302.527 432.018L277.664 474.764ZM241.645 413.291L256 437.964L270.345 413.291L255.991 404.936L241.645 413.291ZM37.2364 376L79.9727 302.527L37.2364 277.664V376ZM432.018 302.527L474.764 375.991V277.655L432.018 302.527ZM189.055 189.073L150.127 255.991L189.064 322.918L255.991 361.864L322.927 322.918L361.864 255.991L322.927 189.064L256 150.127L189.055 189.073ZM404.936 256L413.291 270.345L437.964 256L413.291 241.645L404.936 256ZM74.0364 256L98.6909 270.345L107.045 255.991L98.7 241.645L74.0364 256ZM37.2364 234.327L79.9727 209.464L37.2364 136V234.327ZM432.018 209.464L474.764 234.327V135.991L432.018 209.464ZM37.2364 61.9545L112.164 190.736L161.827 161.836L190.736 112.164L61.9545 37.2364H37.2364V61.9545ZM321.255 112.164L350.155 161.836L399.827 190.736L474.764 61.9455V37.2364H450.045L321.255 112.164ZM241.645 98.7L256 107.045L270.345 98.7L256 74.0364L241.645 98.7ZM302.527 79.9727L376 37.2364H277.664L302.527 79.9727ZM209.464 79.9727L234.336 37.2364H136.009L209.464 79.9727Z" fill="white"/>
</svg>
