<svg width="26" height="23" viewBox="0 0 26 23" fill="none" xmlns="http://www.w3.org/2000/svg">
<path d="M10 5.33496C9.54857 5.33915 9.17925 5.34724 8.86328 5.37305C8.47736 5.40458 8.20408 5.4577 7.98731 5.53516L7.78711 5.6211C7.34768 5.845 6.98002 6.18539 6.72363 6.60352L6.62109 6.78711C6.49517 7.03426 6.4151 7.34858 6.37305 7.86328C6.33037 8.38569 6.33008 9.05389 6.33008 9.99805V12.6621C6.33008 13.6062 6.33037 14.2744 6.37305 14.7968C6.4151 15.3116 6.49517 15.6259 6.62109 15.873L6.72363 16.0566C6.98002 16.4747 7.3477 16.8151 7.78711 17.039L7.98731 17.125C8.20408 17.2024 8.47738 17.2555 8.86328 17.2871C9.17902 17.3129 9.54804 17.321 9.99902 17.3252L10 5.33496ZM21.33 12.6621C21.33 13.5843 21.3303 14.3161 21.2822 14.9052C21.2395 15.4274 21.1566 15.8822 20.9775 16.2998L20.8945 16.4765C20.559 17.135 20.0484 17.6861 19.4218 18.0703L19.1464 18.2246C18.6807 18.4618 18.1719 18.5635 17.5752 18.6123C16.986 18.6604 16.2543 18.6601 15.332 18.6601H10.9981C10.0758 18.6601 9.34402 18.6604 8.75488 18.6123C8.23261 18.5696 7.77798 18.4858 7.36035 18.3066L7.18359 18.2246C6.52518 17.8891 5.97402 17.3784 5.58984 16.7519L5.43555 16.4765C5.19832 16.0108 5.09662 15.502 5.04785 14.9052C4.99972 14.3161 5 13.5843 5 12.6621V9.99805C5 9.07576 4.99972 8.34402 5.04785 7.75489C5.09661 7.15813 5.19833 6.64936 5.43555 6.1836L5.58984 5.90821C5.97402 5.2817 6.52516 4.77104 7.18359 4.43555L7.36035 4.35254C7.77789 4.17347 8.23275 4.09052 8.75488 4.04785C9.34402 3.99972 10.0758 4 10.9981 4H15.332C16.2543 4 16.986 3.99972 17.5752 4.04785C18.1719 4.09661 18.6807 4.19833 19.1464 4.43555L19.4218 4.58985C20.0483 4.97402 20.559 5.52516 20.8945 6.1836L20.9775 6.36035C21.1566 6.77789 21.2395 7.23275 21.2822 7.75489C21.3303 8.34402 21.33 9.07576 21.33 9.99805V12.6621ZM11.3291 17.33H15.332C16.2762 17.33 16.9444 17.3297 17.4668 17.2871C17.9814 17.245 18.2958 17.1649 18.5429 17.039L18.7265 16.9365C19.1447 16.6801 19.485 16.3124 19.7089 15.873L19.7949 15.6728C19.8724 15.456 19.9255 15.1828 19.957 14.7968C19.9997 14.2744 20 13.6062 20 12.6621V9.99805C20 9.05389 19.9997 8.38569 19.957 7.86328C19.9255 7.47736 19.8723 7.20408 19.7949 6.98731L19.7089 6.78711C19.485 6.34768 19.1446 5.98002 18.7265 5.72364L18.5429 5.6211C18.2958 5.49517 17.9815 5.4151 17.4668 5.37305C16.9444 5.33037 16.2762 5.33008 15.332 5.33008H11.3291L11.3301 5.33496L11.3291 17.33Z" fill="white"/>
</svg>
