<svg width="512" height="512" viewBox="0 0 512 512" fill="none" xmlns="http://www.w3.org/2000/svg">
<g clip-path="url(#clip0_33_19)">
<rect x="-287.118" y="436.959" width="1024" height="32" transform="rotate(-45 -287.118 436.959)" fill="white"/>
<rect x="-321.059" y="403.018" width="1024" height="32" transform="rotate(-45 -321.059 403.018)" fill="white"/>
<rect x="-355" y="369.077" width="1024" height="32" transform="rotate(-45 -355 369.077)" fill="white"/>
<rect x="-151.353" y="572.724" width="1024" height="32" transform="rotate(-45 -151.353 572.724)" fill="white"/>
<rect x="-219.235" y="504.842" width="1024" height="32" transform="rotate(-45 -219.235 504.842)" fill="white"/>
<rect x="-83.4709" y="640.606" width="1024" height="32" transform="rotate(-45 -83.4709 640.606)" fill="white"/>
<rect x="18.3523" y="742.43" width="1024" height="32" transform="rotate(-45 18.3523 742.43)" fill="white"/>
<rect x="-253.177" y="470.901" width="1024" height="32" transform="rotate(-45 -253.177 470.901)" fill="white"/>
<rect x="-117.412" y="606.665" width="1024" height="32" transform="rotate(-45 -117.412 606.665)" fill="white"/>
<rect x="-15.5889" y="708.489" width="1024" height="32" transform="rotate(-45 -15.5889 708.489)" fill="white"/>
<rect x="-185.294" y="538.783" width="1024" height="32" transform="rotate(-45 -185.294 538.783)" fill="white"/>
<rect x="-49.5298" y="674.547" width="1024" height="32" transform="rotate(-45 -49.5298 674.547)" fill="white"/>
<rect x="52.2935" y="776.371" width="1024" height="32" transform="rotate(-45 52.2935 776.371)" fill="white"/>
<rect x="86.2346" y="810.312" width="1024" height="32" transform="rotate(-45 86.2346 810.312)" fill="white"/>
<rect x="120.176" y="844.253" width="1024" height="32" transform="rotate(-45 120.176 844.253)" fill="white"/>
</g>
<defs>
<clipPath id="clip0_33_19">
<rect width="512" height="512" fill="white"/>
</clipPath>
</defs>
</svg>
